<svg width="25" height="25" viewBox="0 0 25 25" fill="none" xmlns="http://www.w3.org/2000/svg">
<path d="M18.4508 19.0012H17.6872C16.8835 19.0012 16.1199 19.3114 15.5573 19.872L13.8393 21.5635C13.0556 22.3342 11.7797 22.3342 10.996 21.5635L9.27799 19.872C8.71537 19.3114 7.94176 19.0012 7.14806 19.0012H6.39455C4.72677 19.0012 3.38049 17.67 3.38049 16.0285V5.09865C3.38049 3.45717 4.72677 2.12598 6.39455 2.12598H18.4508C20.1185 2.12598 21.4648 3.45717 21.4648 5.09865V16.0185C21.4648 17.66 20.1185 19.0012 18.4508 19.0012Z" stroke="white" stroke-width="1.5" stroke-miterlimit="10" stroke-linecap="round" stroke-linejoin="round"/>
<path d="M12.493 9.08222H12.3423C11.8345 9.06531 11.3534 8.85208 11.0008 8.48774C10.6482 8.12339 10.4519 7.63657 10.4535 7.13047C10.4535 6.04949 11.3275 5.17871 12.4126 5.17871C13.4977 5.17871 14.3717 6.0595 14.3717 7.13047C14.3818 8.19142 13.5479 9.0522 12.493 9.08222V9.08222ZM9.65977 12.0949C8.32354 12.9857 8.32354 14.437 9.65977 15.3278C11.1768 16.3388 13.6685 16.3388 15.1855 15.3278C16.5218 14.437 16.5218 12.9857 15.1855 12.0949C13.6685 11.094 11.1869 11.094 9.65977 12.0949Z" stroke="white" stroke-width="1.5" stroke-linecap="round" stroke-linejoin="round"/>
</svg>
